<svg width="667" height="631" viewBox="0 0 667 631" fill="none" xmlns="http://www.w3.org/2000/svg">
<rect x="348.963" y="55.4507" width="318.694" height="660.844" rx="41.1643" transform="rotate(8.64559 348.963 55.4507)" fill="#1C1B2D"/>
<rect x="352.312" y="60.0049" width="309.702" height="652.846" rx="37.6241" transform="rotate(8.64559 352.312 60.0049)" fill="#23213B"/>
<rect x="321.954" y="213.145" width="1.99808" height="46.9889" rx="0.884738" transform="rotate(8.64559 321.954 213.145)" fill="#1C1B2D"/>
<rect x="313.087" y="271.46" width="1.99808" height="46.9889" rx="0.884738" transform="rotate(8.64559 313.087 271.46)" fill="#1C1B2D"/>
<rect x="328.567" y="169.655" width="2.99712" height="22.9946" rx="0.884738" transform="rotate(8.64559 328.567 169.655)" fill="#1C1B2D"/>
<rect x="635.181" y="293.131" width="2.99712" height="72.9828" rx="0.884738" transform="rotate(8.64559 635.181 293.131)" fill="#1C1B2D"/>
<rect x="358.862" y="70.1021" width="292.719" height="634.851" rx="31.0294" transform="rotate(8.64559 358.862 70.1021)" fill="#353447"/>
<rect x="460.529" y="92.6392" width="85.9174" height="24.9941" rx="12.4971" transform="rotate(8.64559 460.529 92.6392)" fill="#1C1B2D"/>
<rect x="2.98535" y="69.7358" width="318.694" height="660.844" rx="41.1643" transform="rotate(-5.06 2.98535 69.7358)" fill="#1C1B2D"/>
<rect x="7.31885" y="73.3667" width="309.702" height="652.846" rx="37.6241" transform="rotate(-5.06 7.31885 73.3667)" fill="#23213B"/>
<rect x="14.1084" y="229.339" width="1.99808" height="46.9889" rx="0.884738" transform="rotate(-5.06 14.1084 229.339)" fill="#1C1B2D"/>
<rect x="19.311" y="288.095" width="1.99808" height="46.9889" rx="0.884738" transform="rotate(-5.06 19.311 288.095)" fill="#1C1B2D"/>
<rect x="10.2285" y="185.521" width="2.99712" height="22.9946" rx="0.884738" transform="rotate(-5.06 10.2285 185.521)" fill="#1C1B2D"/>
<rect x="337.367" y="232.833" width="2.99712" height="72.9828" rx="0.884738" transform="rotate(-5.06 337.367 232.833)" fill="#1C1B2D"/>
<rect x="16.0737" y="81.6245" width="292.719" height="634.851" rx="31.0294" transform="rotate(-5.06 16.0737 81.6245)" fill="#353447"/>
<rect x="120.186" y="79.4316" width="85.9174" height="24.9941" rx="12.4971" transform="rotate(-5.06 120.186 79.4316)" fill="#1C1B2D"/>
</svg>
