<svg width="23" height="25" viewBox="0 0 23 25" fill="none" xmlns="http://www.w3.org/2000/svg">
<g clip-path="url(#clip0_1_19642)">
<path d="M16.5186 16.0949L13.066 12.6357L1.64111 24.2384C1.75032 24.1972 1.85619 24.1476 1.95776 24.09L16.5186 16.0949Z" fill="white"/>
<path d="M0.00850522 1.44011C0.0144238 2.85543 0.107148 21.7237 0.116026 22.9134C0.0902982 23.1611 0.125802 23.4113 0.219399 23.642C0.312996 23.8725 0.4618 24.0765 0.652648 24.2357L12.5668 12.1372L0.600367 0.143555C0.393848 0.285546 0.229684 0.481195 0.125431 0.709572C0.0211803 0.937949 -0.0192362 1.19047 0.00850522 1.44011Z" fill="white"/>
<path d="M17.1586 8.48145L13.5612 12.1345L17.1626 15.7421L22.1126 13.0234C22.7044 12.6957 23.3338 11.8604 22.1126 11.1923L17.1586 8.48145Z" fill="white"/>
<path d="M1.95772 0.159347C1.7996 0.0753001 1.62738 0.0212781 1.44971 0L13.0631 11.6343L16.5156 8.12869L1.95772 0.159347Z" fill="white"/>
</g>
<defs>
<clipPath id="clip0_1_19642">
<rect width="23" height="25" fill="white"/>
</clipPath>
</defs>
</svg>
