<svg width="184" height="33" viewBox="0 0 184 33" fill="none" xmlns="http://www.w3.org/2000/svg">
<g clip-path="url(#clip0_2_478)">
<path d="M42.5485 14.0433C42.5485 12.1432 42.9728 10.446 43.8213 8.95176C44.6884 7.43908 45.8598 6.26767 47.3355 5.43754C48.8298 4.58896 50.4993 4.16467 52.344 4.16467C54.5023 4.16467 56.3932 4.71809 58.0166 5.82493C59.6399 6.93178 60.7744 8.4629 61.4201 10.4183H56.9651C56.5223 9.49596 55.8951 8.80418 55.0834 8.343C54.2902 7.88181 53.3678 7.65122 52.3163 7.65122C51.191 7.65122 50.1857 7.91871 49.3002 8.45368C48.4332 8.97021 47.7506 9.7081 47.2525 10.6674C46.7729 11.6266 46.5331 12.752 46.5331 14.0433C46.5331 15.3161 46.7729 16.4414 47.2525 17.4191C47.7506 18.3784 48.4332 19.1255 49.3002 19.6605C50.1857 20.177 51.191 20.4353 52.3163 20.4353C53.3678 20.4353 54.2902 20.2047 55.0834 19.7435C55.8951 19.2639 56.5223 18.5629 56.9651 17.6405H61.4201C60.7744 19.6144 59.6399 21.1547 58.0166 22.2616C56.4116 23.35 54.5208 23.8942 52.344 23.8942C50.4993 23.8942 48.8298 23.4791 47.3355 22.649C45.8598 21.8004 44.6884 20.629 43.8213 19.1347C42.9728 17.6405 42.5485 15.9434 42.5485 14.0433Z" fill="white"/>
<path d="M71.536 23.9771C70.0602 23.9771 68.732 23.6542 67.5514 23.0086C66.3707 22.3445 65.4392 21.4129 64.7566 20.2138C64.0925 19.0147 63.7604 17.6312 63.7604 16.0632C63.7604 14.4951 64.1017 13.1116 64.7843 11.9126C65.4853 10.7135 66.4353 9.7911 67.6344 9.14545C68.8335 8.48134 70.1709 8.14929 71.6467 8.14929C73.1225 8.14929 74.4599 8.48134 75.659 9.14545C76.8581 9.7911 77.7989 10.7135 78.4814 11.9126C79.1824 13.1116 79.5329 14.4951 79.5329 16.0632C79.5329 17.6312 79.1732 19.0147 78.4538 20.2138C77.7528 21.4129 76.7935 22.3445 75.576 23.0086C74.3769 23.6542 73.0302 23.9771 71.536 23.9771ZM71.536 20.6012C72.237 20.6012 72.8919 20.4352 73.5006 20.1031C74.1279 19.7526 74.6259 19.2361 74.9949 18.5536C75.3638 17.871 75.5483 17.0409 75.5483 16.0632C75.5483 14.6058 75.1609 13.4898 74.3861 12.715C73.6298 11.9218 72.6982 11.5252 71.5913 11.5252C70.4845 11.5252 69.5529 11.9218 68.7966 12.715C68.0587 13.4898 67.6897 14.6058 67.6897 16.0632C67.6897 17.5205 68.0495 18.6458 68.7689 19.439C69.5068 20.2138 70.4292 20.6012 71.536 20.6012Z" fill="white"/>
<path d="M101.412 8.17694C103.294 8.17694 104.807 8.75803 105.95 9.92021C107.112 11.064 107.694 12.6688 107.694 14.735V23.728H103.82V15.2607C103.82 14.0616 103.515 13.1485 102.906 12.5213C102.298 11.8756 101.468 11.5528 100.416 11.5528C99.3646 11.5528 98.5252 11.8756 97.898 12.5213C97.2893 13.1485 96.9849 14.0616 96.9849 15.2607V23.728H93.111V15.2607C93.111 14.0616 92.8066 13.1485 92.1978 12.5213C91.5891 11.8756 90.7589 11.5528 89.7074 11.5528C88.6375 11.5528 87.7889 11.8756 87.1617 12.5213C86.5529 13.1485 86.2485 14.0616 86.2485 15.2607V23.728H82.3746V8.39831H86.2485V10.2523C86.7466 9.60661 87.3831 9.09931 88.1578 8.73036C88.9511 8.36141 89.8181 8.17694 90.7589 8.17694C91.958 8.17694 93.0279 8.4352 93.9688 8.95173C94.9096 9.44981 95.6382 10.1693 96.1548 11.1101C96.6528 10.2246 97.3723 9.51437 98.3131 8.9794C99.2724 8.44443 100.305 8.17694 101.412 8.17694Z" fill="white"/>
<path d="M115.244 10.612C115.742 9.91101 116.424 9.32992 117.291 8.86874C118.177 8.38911 119.182 8.14929 120.307 8.14929C121.617 8.14929 122.798 8.47212 123.849 9.11778C124.919 9.76343 125.759 10.6858 126.367 11.8849C126.995 13.0655 127.308 14.4398 127.308 16.0078C127.308 17.5758 126.995 18.9686 126.367 20.1861C125.759 21.3852 124.919 22.3168 123.849 22.9809C122.798 23.645 121.617 23.9771 120.307 23.9771C119.182 23.9771 118.186 23.7465 117.319 23.2853C116.47 22.8241 115.779 22.243 115.244 21.542V31.0332H111.37V8.39833H115.244V10.612ZM123.351 16.0078C123.351 15.0855 123.158 14.2922 122.77 13.6281C122.401 12.9456 121.903 12.4291 121.276 12.0786C120.667 11.7281 120.003 11.5528 119.284 11.5528C118.583 11.5528 117.919 11.7373 117.291 12.1063C116.683 12.4567 116.184 12.9732 115.797 13.6558C115.428 14.3383 115.244 15.1408 115.244 16.0632C115.244 16.9855 115.428 17.788 115.797 18.4705C116.184 19.1531 116.683 19.6788 117.291 20.0478C117.919 20.3983 118.583 20.5735 119.284 20.5735C120.003 20.5735 120.667 20.3891 121.276 20.0201C121.903 19.6512 122.401 19.1254 122.77 18.4429C123.158 17.7603 123.351 16.9486 123.351 16.0078Z" fill="white"/>
<path d="M129.127 16.0078C129.127 14.4582 129.432 13.0839 130.04 11.8849C130.667 10.6858 131.507 9.76343 132.558 9.11778C133.628 8.47212 134.818 8.14929 136.128 8.14929C137.272 8.14929 138.268 8.37988 139.116 8.84106C139.983 9.30225 140.675 9.88334 141.192 10.5843V8.39833H145.093V23.728H141.192V21.4867C140.694 22.2061 140.002 22.8057 139.116 23.2853C138.249 23.7465 137.244 23.9771 136.1 23.9771C134.809 23.9771 133.628 23.645 132.558 22.9809C131.507 22.3168 130.667 21.3852 130.04 20.1861C129.432 18.9686 129.127 17.5758 129.127 16.0078ZM141.192 16.0632C141.192 15.1223 141.007 14.3199 140.638 13.6558C140.269 12.9732 139.771 12.4567 139.144 12.1063C138.517 11.7373 137.844 11.5528 137.124 11.5528C136.405 11.5528 135.741 11.7281 135.132 12.0786C134.523 12.4291 134.025 12.9456 133.638 13.6281C133.269 14.2922 133.084 15.0855 133.084 16.0078C133.084 16.9302 133.269 17.7419 133.638 18.4429C134.025 19.1254 134.523 19.6512 135.132 20.0201C135.759 20.3891 136.423 20.5735 137.124 20.5735C137.844 20.5735 138.517 20.3983 139.144 20.0478C139.771 19.6788 140.269 19.1623 140.638 18.4982C141.007 17.8157 141.192 17.004 141.192 16.0632Z" fill="white"/>
<path d="M157.372 8.17694C159.198 8.17694 160.674 8.75803 161.799 9.92021C162.925 11.064 163.487 12.6688 163.487 14.735V23.728H159.613V15.2607C159.613 14.0432 159.309 13.1116 158.7 12.466C158.091 11.8018 157.261 11.4698 156.21 11.4698C155.14 11.4698 154.291 11.8018 153.664 12.466C153.055 13.1116 152.751 14.0432 152.751 15.2607V23.728H148.877V8.39831H152.751V10.3076C153.267 9.6435 153.922 9.12698 154.715 8.75803C155.527 8.37064 156.413 8.17694 157.372 8.17694Z" fill="white"/>
<path d="M181.837 8.39832L172.346 30.9778H168.223L171.543 23.3406L165.4 8.39832H169.745L173.701 19.107L177.714 8.39832H181.837Z" fill="white"/>
<path d="M13.5032 30.8288C7.58841 30.8288 2.8125 26.0162 2.8125 20.1381C2.8125 14.2601 7.58841 9.44751 13.5032 9.44751C19.3812 9.44751 24.1939 14.2234 24.1939 20.1381C24.1571 26.0162 19.3812 30.8288 13.5032 30.8288Z" fill="#0328EE"/>
<path d="M29.3052 2.61487H15.2248C14.2739 2.61487 13.5031 3.38571 13.5031 4.3366V18.4171C13.5031 19.368 14.2739 20.1388 15.2248 20.1388H29.3052C30.2561 20.1388 31.027 19.368 31.027 18.4171V4.3366C31.027 3.38571 30.2561 2.61487 29.3052 2.61487Z" fill="white"/>
</g>
<defs>
<clipPath id="clip0_2_478">
<rect width="180" height="29" fill="white" transform="translate(2 2.53125)"/>
</clipPath>
</defs>
</svg>
