<svg width="184" height="33" viewBox="0 0 184 33" fill="none" xmlns="http://www.w3.org/2000/svg">
<g clip-path="url(#clip0_2_451)">
<path d="M64.8029 17.896C63.5399 19.9449 61.7436 21.1237 59.4141 21.1237C56.0462 21.1237 53.5763 18.4012 53.5763 14.8929C53.5763 11.3846 55.9339 8.69021 59.4703 8.69021C61.7156 8.69021 63.7363 9.95319 64.7467 11.8617L68.0024 9.2796C66.3465 6.33263 63.3434 4.56445 59.5264 4.56445C53.4079 4.56445 49.1138 9.1112 49.1138 14.8929C49.1138 20.6746 53.4921 25.2494 59.4703 25.2494C63.2312 25.2494 66.3746 23.2567 68.0866 20.422L64.8029 17.896Z" fill="white"/>
<path d="M77.0021 10.1777C72.5115 10.1777 69.2838 13.4335 69.2838 17.6996C69.2838 21.9376 72.5115 25.2494 77.0021 25.2494C81.4927 25.2494 84.7203 21.9376 84.7203 17.6996C84.7203 13.4335 81.4927 10.1777 77.0021 10.1777ZM77.0021 13.9667C78.9387 13.9667 80.3981 15.4543 80.3981 17.6996C80.3981 19.9449 78.9387 21.4605 77.0021 21.4605C75.0655 21.4605 73.6061 19.9449 73.6061 17.6996C73.6061 15.4543 75.0655 13.9667 77.0021 13.9667Z" fill="white"/>
<path d="M87.5088 10.5145V24.9126H91.7749V17.4189C91.7749 15.5385 92.7572 13.9387 94.5534 13.9387C96.1252 13.9387 97.1355 14.921 97.1355 16.8014V24.9126H101.402V17.4189C101.402 15.5385 102.384 13.9387 104.18 13.9387C105.752 13.9387 106.734 14.921 106.734 16.8014V24.9126H111V16.1559C111 12.423 108.895 10.1777 105.443 10.1777C103.001 10.1777 101.626 11.2443 100.588 12.7037C99.6054 11.1039 98.0337 10.1777 95.8164 10.1777C93.936 10.1777 92.5327 10.9075 91.6065 12.3669V10.5145H87.5088Z" fill="white"/>
<path d="M122.193 13.9387C124.017 13.9387 125.533 15.4262 125.533 17.7557C125.533 20.001 124.017 21.4885 122.193 21.4885C120.285 21.4885 118.797 20.0291 118.797 17.7557C118.797 15.3981 120.285 13.9387 122.193 13.9387ZM118.601 10.5145H114.643V30.5259H118.909V23.3409C119.807 24.6881 121.52 25.2494 123.063 25.2494C126.992 25.2494 129.827 21.9937 129.827 17.6996C129.827 13.2651 126.768 10.1777 123.091 10.1777C121.688 10.1777 119.723 10.7671 118.601 12.5072V10.5145Z" fill="white"/>
<path d="M140.089 15.9594L136.16 16.7172C133.128 17.3628 131.473 18.8222 131.473 20.9553C131.473 23.4532 133.437 25.2494 136.244 25.2494C138.152 25.2494 139.556 24.4074 140.229 23.1444V24.9126H144.187V15.8472C144.187 12.3388 141.801 10.1777 137.787 10.1777C135.093 10.1777 132.932 11.3004 131.613 12.9002L133.83 15.5946C134.7 14.6123 135.935 13.8545 137.535 13.8545C138.994 13.8545 140.089 14.4158 140.089 15.8472V15.9594ZM137.198 22.0779C136.188 22.0779 135.542 21.5166 135.542 20.7027C135.542 19.9168 136.104 19.4116 137.254 19.2151L140.117 18.6538V19.0748C140.117 20.7869 138.966 22.0779 137.198 22.0779Z" fill="white"/>
<path d="M147.78 10.5145V24.9126H152.046V17.4189C152.046 15.5385 153.029 13.9387 154.881 13.9387C156.453 13.9387 157.463 14.921 157.463 16.8014V24.9126H161.729V16.1559C161.729 12.423 159.596 10.1777 156.144 10.1777C154.207 10.1777 152.804 10.9075 151.878 12.3669V10.5145H147.78Z" fill="white"/>
<path d="M168.695 24.3794L168.527 24.8565C167.909 26.9053 166.871 27.2702 165.748 27.2702C165.271 27.2702 164.541 27.2141 163.783 26.7931V30.3294C164.429 30.6382 165.355 30.8627 166.365 30.8627C169.088 30.8627 170.828 29.5716 172.259 26.0914L178.546 10.5145H174.196L170.828 19.9449L167.488 10.5145H163.026L168.695 24.3794Z" fill="white"/>
<path d="M23.7098 2.61487H19.2308C18.763 2.61487 18.3838 2.99408 18.3838 3.46186V27.309C18.3838 27.7768 18.763 28.156 19.2308 28.156H23.7098C24.1776 28.156 24.5568 27.7768 24.5568 27.309V3.46186C24.5568 2.99408 24.1776 2.61487 23.7098 2.61487Z" fill="white"/>
<path d="M32.839 28.1558C35.737 28.1558 38.0863 25.8065 38.0863 22.9086C38.0863 20.0106 35.737 17.6613 32.839 17.6613C29.9411 17.6613 27.5918 20.0106 27.5918 22.9086C27.5918 25.8065 29.9411 28.1558 32.839 28.1558Z" fill="#0328EE"/>
<path d="M32.839 13.1094C35.737 13.1094 38.0863 10.7601 38.0863 7.86211C38.0863 4.96414 35.737 2.61487 32.839 2.61487C29.9411 2.61487 27.5918 4.96414 27.5918 7.86211C27.5918 10.7601 29.9411 13.1094 32.839 13.1094Z" fill="#0328EE"/>
<path d="M10.1017 28.1558C12.9997 28.1558 15.349 25.8065 15.349 22.9086C15.349 20.0106 12.9997 17.6613 10.1017 17.6613C7.20376 17.6613 4.85449 20.0106 4.85449 22.9086C4.85449 25.8065 7.20376 28.1558 10.1017 28.1558Z" fill="#0328EE"/>
</g>
<defs>
<clipPath id="clip0_2_451">
<rect width="175" height="29" fill="white" transform="translate(4.5 2.53125)"/>
</clipPath>
</defs>
</svg>
