<svg width="184" height="26" viewBox="0 0 184 26" fill="none" xmlns="http://www.w3.org/2000/svg">
<g clip-path="url(#clip0_2_439)">
<path d="M64.2771 19.9267C62.8097 19.9267 61.5161 19.6146 60.3962 18.9906C59.2764 18.3666 58.3882 17.4967 57.7317 16.381C57.0946 15.2653 56.776 13.9888 56.776 12.5517C56.776 11.1146 57.0946 9.83806 57.7317 8.7224C58.3882 7.60671 59.2764 6.73684 60.3962 6.1128C61.5161 5.48878 62.8097 5.17676 64.2771 5.17676C66.1115 5.17676 67.6561 5.64951 68.9111 6.59501C70.1662 7.52161 70.9674 8.8075 71.315 10.4527H67.4051C67.212 9.7719 66.8259 9.2424 66.2466 8.86423C65.6867 8.46711 65.0206 8.26856 64.2482 8.26856C63.2249 8.26856 62.356 8.64676 61.6416 9.40315C60.9272 10.1596 60.57 11.2091 60.57 12.5517C60.57 13.8943 60.9272 14.9438 61.6416 15.7003C62.356 16.4567 63.2249 16.8348 64.2482 16.8348C65.0206 16.8348 65.6867 16.6458 66.2466 16.2675C66.8259 15.8893 67.212 15.3504 67.4051 14.6508H71.315C70.9674 16.2392 70.1662 17.5156 68.9111 18.48C67.6561 19.4444 66.1115 19.9267 64.2771 19.9267Z" fill="white"/>
<path d="M80.9192 19.9267C79.529 19.9267 78.2739 19.6146 77.154 18.9906C76.0535 18.3666 75.175 17.5062 74.5185 16.4093C73.8813 15.2937 73.5627 14.0077 73.5627 12.5517C73.5627 11.0957 73.891 9.81915 74.5474 8.7224C75.2039 7.60671 76.0824 6.73684 77.183 6.1128C78.3029 5.48878 79.5579 5.17676 80.9481 5.17676C82.319 5.17676 83.5547 5.48878 84.6553 6.1128C85.7751 6.73684 86.6536 7.60671 87.2909 8.7224C87.9473 9.81915 88.2756 11.0957 88.2756 12.5517C88.2756 14.0077 87.9473 15.2937 87.2909 16.4093C86.6536 17.5062 85.7751 18.3666 84.6553 18.9906C83.5354 19.6146 82.29 19.9267 80.9192 19.9267ZM80.9192 16.7781C81.8846 16.7781 82.7245 16.4283 83.4389 15.7286C84.1533 15.01 84.5105 13.9511 84.5105 12.5517C84.5105 11.1523 84.1533 10.1028 83.4389 9.40315C82.7245 8.68458 81.8942 8.32529 80.9481 8.32529C79.9634 8.32529 79.1139 8.68458 78.3995 9.40315C77.7044 10.1028 77.3568 11.1523 77.3568 12.5517C77.3568 13.9511 77.7044 15.01 78.3995 15.7286C79.1139 16.4283 79.9538 16.7781 80.9192 16.7781Z" fill="white"/>
<path d="M91.0109 19.5863V5.51713H94.2832L94.6018 7.41761C95.0659 6.73684 95.6738 6.1979 96.4271 5.80079C97.1989 5.38477 98.0877 5.17676 99.091 5.17676C101.312 5.17676 102.885 6.01825 103.812 7.70126C104.334 6.92594 105.028 6.31136 105.897 5.85752C106.786 5.40367 107.751 5.17676 108.794 5.17676C110.667 5.17676 112.105 5.72515 113.109 6.82194C114.113 7.91873 114.615 9.52606 114.615 11.644V19.5863H110.908V11.9844C110.908 10.7742 110.667 9.84757 110.184 9.20465C109.721 8.56167 108.997 8.24019 108.012 8.24019C107.008 8.24019 106.197 8.59949 105.579 9.31806C104.98 10.0367 104.682 11.0389 104.682 12.3247V19.5863H100.974V11.9844C100.974 10.7742 100.732 9.84757 100.25 9.20465C99.7675 8.56167 99.0242 8.24019 98.02 8.24019C97.035 8.24019 96.234 8.59949 95.6161 9.31806C95.0174 10.0367 94.7181 11.0389 94.7181 12.3247V19.5863H91.0109Z" fill="white"/>
<path d="M117.555 25.8266V5.51713H120.857L121.263 7.53107C121.726 6.90703 122.335 6.35864 123.087 5.88589C123.86 5.41313 124.854 5.17676 126.07 5.17676C127.422 5.17676 128.629 5.49823 129.691 6.14117C130.753 6.78411 131.592 7.66343 132.21 8.77914C132.828 9.89482 133.137 11.1618 133.137 12.5801C133.137 13.9983 132.828 15.2653 132.21 16.381C131.592 17.4778 130.753 18.3477 129.691 18.9906C128.629 19.6146 127.422 19.9267 126.07 19.9267C124.989 19.9267 124.043 19.7281 123.232 19.331C122.421 18.9339 121.764 18.376 121.263 17.6574V25.8266H117.555ZM125.289 16.7498C126.466 16.7498 127.442 16.3621 128.213 15.5868C128.986 14.8115 129.372 13.8093 129.372 12.5801C129.372 11.3509 128.986 10.3392 128.213 9.54498C127.442 8.75077 126.466 8.35365 125.289 8.35365C124.091 8.35365 123.106 8.75077 122.335 9.54498C121.581 10.3203 121.205 11.3226 121.205 12.5517C121.205 13.7808 121.581 14.7926 122.335 15.5868C123.106 16.3621 124.091 16.7498 125.289 16.7498Z" fill="white"/>
<path d="M140.822 19.9267C139.587 19.9267 138.572 19.7375 137.781 19.3594C136.99 18.9623 136.401 18.4422 136.015 17.7993C135.628 17.1563 135.435 16.4472 135.435 15.6718C135.435 14.3671 135.956 13.3081 136.999 12.495C138.041 11.6818 139.606 11.2752 141.691 11.2752H145.34V10.9349C145.34 9.97049 145.06 9.26131 144.501 8.8075C143.94 8.35365 143.246 8.12674 142.415 8.12674C141.662 8.12674 141.006 8.30638 140.445 8.66567C139.886 9.00606 139.538 9.51665 139.403 10.1974H135.783C135.879 9.17623 136.227 8.28747 136.826 7.53107C137.444 6.77466 138.235 6.1979 139.2 5.80079C140.166 5.38477 141.247 5.17676 142.444 5.17676C144.491 5.17676 146.103 5.67788 147.281 6.68011C148.459 7.68234 149.047 9.10065 149.047 10.9349V19.5863H145.89L145.543 17.317C145.119 18.0734 144.52 18.6975 143.747 19.1892C142.995 19.6809 142.019 19.9267 140.822 19.9267ZM141.662 17.0901C142.724 17.0901 143.545 16.7498 144.123 16.069C144.722 15.3883 145.099 14.5468 145.253 13.5445H142.097C141.112 13.5445 140.407 13.7242 139.982 14.0834C139.557 14.4238 139.345 14.8493 139.345 15.3598C139.345 15.9083 139.557 16.3338 139.982 16.6363C140.407 16.9388 140.967 17.0901 141.662 17.0901Z" fill="white"/>
<path d="M152.006 19.5863V5.51713H155.279L155.568 7.89981C156.012 7.06776 156.649 6.40591 157.479 5.91425C158.329 5.42258 159.324 5.17676 160.463 5.17676C162.239 5.17676 163.62 5.72515 164.604 6.82194C165.589 7.91873 166.082 9.52606 166.082 11.644V19.5863H162.374V11.9844C162.374 10.7742 162.123 9.84757 161.621 9.20465C161.119 8.56167 160.337 8.24019 159.276 8.24019C158.233 8.24019 157.373 8.59949 156.698 9.31806C156.041 10.0367 155.713 11.0389 155.713 12.3247V19.5863H152.006Z" fill="white"/>
<path d="M170.362 25.8266L173.693 18.6501H172.824L167.234 5.51709H171.26L175.285 15.4165L179.485 5.51709H183.424L174.301 25.8266H170.362Z" fill="white"/>
<path d="M14.5228 23.3811C13.5542 24.3297 11.9834 24.3284 11.0165 23.3781L1.76048 14.2818C0.795893 13.3339 0.797236 11.8 1.76348 10.8537L11.0195 1.78849C11.9857 0.84216 13.5519 0.840844 14.5198 1.78555L23.8076 10.8507C24.7778 11.7977 24.7792 13.3361 23.8106 14.2848L14.5228 23.3811Z" fill="#0328EE"/>
<path d="M27.3174 23.3772C26.3505 24.3275 24.7797 24.3288 23.8111 23.3802L14.5233 14.2838C13.5547 13.3352 13.556 11.7968 14.5263 10.8498L23.8141 1.78463C24.782 0.83993 26.3481 0.841244 27.3144 1.78757L36.5704 10.8527C37.5366 11.7991 37.538 13.333 36.5734 14.2809L27.3174 23.3772Z" fill="white"/>
<path d="M36.8014 23.3791C35.8337 24.3284 34.2631 24.3284 33.2953 23.3791L24.0218 14.2825C23.0551 13.3342 23.0564 11.7978 24.0248 10.8511L33.2983 1.78573C34.2654 0.840384 35.8314 0.840384 36.7984 1.78573L46.0718 10.8511C47.0403 11.7978 47.0416 13.3342 46.0749 14.2825L36.8014 23.3791Z" fill="#0328EE"/>
</g>
<defs>
<clipPath id="clip0_2_439">
<rect width="184" height="26" fill="white" transform="translate(0.0148163)"/>
</clipPath>
</defs>
</svg>
